<?xml version="1.0" encoding="utf-8"?>
<!-- Generator: Adobe Illustrator 25.0.0, SVG Export Plug-In . SVG Version: 6.00 Build 0)  -->
<svg version="1.1" id="Capa_1" xmlns="http://www.w3.org/2000/svg" xmlns:xlink="http://www.w3.org/1999/xlink" x="0px" y="0px"
	 viewBox="0 0 50 50" style="enable-background:new 0 0 50 50;" xml:space="preserve">
<style type="text/css">
	.st0{fill:#C8BFFF;}
	.st1{fill:#17163F;}
</style>
<g>
	<circle class="st0" cx="25.1" cy="24.5" r="22.5"/>
</g>
<g>
	<path class="st1" d="M14,20.6h4.8V36H14V20.6z M16.4,13c1.5,0,2.8,1.2,2.8,2.8c0,1.5-1.2,2.8-2.8,2.8c-1.5,0-2.8-1.2-2.8-2.8
		C13.6,14.2,14.9,13,16.4,13"/>
	<path class="st1" d="M21.8,20.6h4.6v2.1h0.1c0.6-1.2,2.2-2.5,4.5-2.5c4.8,0,5.7,3.2,5.7,7.3V36h-4.8v-7.5c0-1.8,0-4.1-2.5-4.1
		c-2.5,0-2.9,1.9-2.9,3.9V36h-4.8V20.6z"/>
</g>
</svg>
