<?xml version="1.0" encoding="utf-8"?>
<!-- Generator: Adobe Illustrator 25.0.0, SVG Export Plug-In . SVG Version: 6.00 Build 0)  -->
<svg version="1.1" id="Capa_1" xmlns="http://www.w3.org/2000/svg" xmlns:xlink="http://www.w3.org/1999/xlink" x="0px" y="0px"
	 viewBox="0 0 50 50" style="enable-background:new 0 0 50 50;" xml:space="preserve">
<style type="text/css">
	.st0{fill:#C8BFFF;}
	.st1{fill:#17163F;}
</style>
<g>
	<circle class="st0" cx="25.1" cy="24.5" r="22.5"/>
	<g>
		<path class="st1" d="M12.4,13.3l10.4,11.8c0.6,0.7,1.4,1.1,2.3,1.1c0.9,0,1.8-0.4,2.3-1.1l10.3-11.6c0.1-0.1,0.2-0.2,0.3-0.2
			c-0.4-0.2-0.9-0.3-1.4-0.3H13.7C13.2,12.9,12.7,13,12.4,13.3C12.3,13.2,12.4,13.2,12.4,13.3z"/>
		<path class="st1" d="M39.6,14.6c0,0.1-0.1,0.2-0.2,0.3L29.2,26.6c-1,1.2-2.5,1.8-4,1.8c-1.5,0-3-0.7-4-1.8L10.7,14.7
			c0,0,0-0.1-0.1-0.1c-0.3,0.5-0.5,1.2-0.5,1.8v16c0,2,1.6,3.5,3.5,3.5h22.9c2,0,3.5-1.6,3.5-3.5v-16C40.2,15.8,40,15.2,39.6,14.6z"
			/>
	</g>
</g>
</svg>
