<?xml version="1.0" encoding="utf-8"?>
<!-- Generator: Adobe Illustrator 25.0.0, SVG Export Plug-In . SVG Version: 6.00 Build 0)  -->
<svg version="1.1" id="Capa_1" xmlns="http://www.w3.org/2000/svg" xmlns:xlink="http://www.w3.org/1999/xlink" x="0px" y="0px"
	 viewBox="0 0 50 50" style="enable-background:new 0 0 50 50;" xml:space="preserve">
<style type="text/css">
	.st0{fill:#C8BFFF;}
	.st1{fill:#17163F;}
	.st2{fill-rule:evenodd;clip-rule:evenodd;fill:#17163F;}
</style>
<g>
	<circle class="st0" cx="25.1" cy="24.5" r="22.5"/>
</g>
<path class="st1" d="M13.7,36l1.6-6.2c-0.9-1.7-1.4-3.6-1.4-5.5C14,18.1,19.1,13,25.3,13c6.3,0,11.4,5.1,11.4,11.4
	c0,6.3-5.1,11.4-11.4,11.4c-1.9,0-3.7-0.5-5.4-1.4L13.7,36z M20.2,32l0.4,0.2c1.4,0.9,3.1,1.3,4.7,1.3c5.1,0,9.2-4.1,9.2-9.2
	c0-5.1-4.1-9.2-9.2-9.2c-5.1,0-9.2,4.1-9.2,9.2c0,1.7,0.5,3.3,1.3,4.8l0.2,0.4L16.8,33L20.2,32z"/>
<path class="st2" d="M29.4,25.9c-0.5-0.3-1.1-0.6-1.6-0.4c-0.4,0.2-0.7,0.8-1,1.2c-0.1,0.2-0.3,0.2-0.5,0.1
	c-1.6-0.6-2.8-1.7-3.7-3.1c-0.1-0.2-0.1-0.4,0.1-0.6c0.3-0.3,0.6-0.7,0.7-1.1c0.1-0.4-0.1-0.9-0.3-1.3c-0.2-0.5-0.5-1.2-0.9-1.4
	c-0.4-0.2-1-0.1-1.4,0.2c-0.7,0.6-1,1.4-1,2.3c0,0.2,0,0.5,0.1,0.7c0.1,0.6,0.4,1.1,0.7,1.6c0.2,0.4,0.5,0.7,0.7,1.1
	c0.8,1.2,1.9,2.2,3.1,2.9c0.6,0.4,1.3,0.7,1.9,0.9c0.8,0.3,1.4,0.5,2.3,0.4c0.9-0.2,1.7-0.7,2.1-1.5c0.1-0.2,0.2-0.5,0.1-0.8
	C30.6,26.5,29.8,26.2,29.4,25.9z"/>
</svg>
